<svg width="427" height="149" viewBox="0 0 427 149" fill="none" xmlns="http://www.w3.org/2000/svg">
<path opacity="0.121569" d="M8.77085 40.8148L21.6597 41.1852L22.4653 40.8148L22.8681 41.1852H82.882L84.6945 42.4815L85.9028 45.0741V45.8148L86.3056 46.9259V47.6667L85.9028 49.5185V61L86.3056 62.1111L85.5 63.5926V64.3333L84.6945 66.5556L80.2639 72.6667C79.5389 72.3951 79.2704 72.5803 79.4584 73.2222L78.4514 74.5185C77.8607 74.3457 77.6593 74.5309 77.8472 75.0741L74.4236 79.3333C73.8329 79.1605 73.6315 79.3457 73.8195 79.8889L65.3611 90.6296L60.5278 95.8148L58.5139 98.963C57.7889 98.6914 57.5204 98.8765 57.7084 99.5185L57.3056 100.444C56.5806 100.173 56.3121 100.358 56.5 101L53.2778 105.259C52.5528 104.988 52.2843 105.173 52.4722 105.815L52.0695 106.741C51.3445 106.469 51.0759 106.654 51.2639 107.296L50.8611 108.222C50.1361 107.951 49.8676 108.136 50.0556 108.778L46.2292 113.407C45.531 113.21 45.3297 113.519 45.625 114.333L44.4167 115.815C44.7658 116.506 45.1014 116.568 45.4236 116C47.1153 115.58 48.1894 115.704 48.6459 116.37H72.4097L72.8125 116H78.4514L81.6736 116.741H83.2847L86.3056 118.222L87.9167 122.667C87.1917 122.938 86.9232 122.753 87.1111 122.111L86.7084 120.259L84.8959 117.852L82.882 117.111H45.4236L43.6111 116.185L45.2222 113.222L83.8889 66.5556L85.5 61.7407V48.037L85.0972 47.6667L84.6945 43.5926L83.8889 42.2963L81.6736 41.5556H8.36808C7.9653 42.1728 7.02548 42.2963 5.54863 41.9259L2.5278 43.963L1.72224 46.1852V65.0741C1.96391 66.7037 2.70234 67.8765 3.93752 68.5926L5.95141 69.3333H44.2153L44.8195 69.8889L2.5278 120.259L1.72224 122.111V132.111L1.31946 132.481V135.815L1.72224 136.185V140.63L3.93752 143.407L5.95141 144.148H10.7847L11.1875 144.519H79.257C79.7403 143.827 80.8144 143.704 82.4792 144.148L85.9028 142.667L87.3125 139.704L87.9167 140.63L86.1042 143.037L84.8959 143.778L82.0764 144.889H24.0764L23.6736 145.259H14.8125L14.4097 144.889H6.75697L2.93058 143.778V143.037C2.20558 143.309 1.93706 143.123 2.12502 142.481L1.31946 141.741L0.916687 139.889V122.852L1.72224 120.259L5.34724 115.259C6.07224 115.531 6.34076 115.346 6.1528 114.704L13.8056 105.444L16.625 102.852L19.4445 98.5926C20.1695 98.8642 20.438 98.679 20.25 98.037L21.6597 96.3704L22.6667 95.8148L24.2778 93.037C25.0028 93.3086 25.2713 93.1235 25.0834 92.4815L33.9445 82.1111L35.9584 78.963C36.6834 79.2346 36.9519 79.0494 36.7639 78.4074L43.6111 70.2593L38.1736 69.7037L37.7709 70.0741H5.54863C4.01808 69.7778 2.87687 69.0988 2.12502 68.037L1.31946 66.5556V45.0741L2.12502 43.037C2.85002 43.3086 3.11854 43.1235 2.93058 42.4815L4.3403 41.5556L8.77085 40.8148Z" fill="#263140" stroke="#263140"/>
<path opacity="0.121569" d="M143.379 41.9559H166.338C166.821 42.6473 167.895 42.7707 169.56 42.3263L173.386 43.4374C173.091 44.1041 173.292 44.351 173.99 44.1781L176.608 46.9559L178.622 52.1411C177.951 52.5115 178.085 52.8818 179.025 53.2522L179.428 53.9929C178.757 54.3633 178.891 54.7337 179.831 55.104L181.845 61.03V62.5115L183.858 66.9559L187.081 77.6966L187.886 78.8078C187.215 79.1781 187.349 79.5485 188.289 79.9189V81.4003L191.511 89.5485V90.2892L193.122 94.3633L193.525 97.3263C194.519 98.2645 195.056 99.6226 195.136 101.4L195.942 102.141V102.882L196.747 104.734V105.474L199.97 115.845L200.775 116.956V117.697L203.997 125.845C203.326 126.215 203.46 126.586 204.4 126.956L205.608 131.771L207.622 136.586L208.025 143.252L207.018 144.919L204.199 146.03H182.046C179.763 145.413 177.951 144.363 176.608 142.882L174.192 137.326L172.178 129.548L170.768 127.511L169.157 127.141L168.351 127.511L167.949 127.141H140.963L139.754 127.511L137.942 128.437L137.136 131.4L136.331 132.141V132.882C136.545 133.944 136.277 134.561 135.525 134.734V135.474L133.914 141.03L130.893 144.548L127.268 146.03H106.324H105.518L103.101 145.66L101.289 144.363L100.483 141.03L103.706 129.178L106.525 120.66L107.331 119.919V119.178L108.136 117.697V116.956L112.97 101.771L114.983 97.3263V96.5855L116.192 93.6226C115.52 93.2522 115.655 92.8818 116.595 92.5115L119.817 82.8818L120.22 80.2892L121.831 76.9559V75.4744L123.039 73.2522L127.872 57.6966L128.678 56.5855V55.104L130.692 49.1781L134.518 44.1781L137.74 42.6966L142.976 42.3263L143.379 41.9559ZM141.97 42.6966L137.942 43.4374L135.122 44.9189L131.9 48.6226L127.872 60.8448V61.5855L126.664 63.8078L120.622 82.6966L119.817 83.8078V85.2892L116.997 92.3263L116.192 96.03L111.358 108.993V110.104L110.553 111.215L110.15 113.808L108.136 118.623L104.511 130.474L103.706 131.586L101.289 140.104L101.692 143.808L103.303 144.919L107.733 145.66H125.456L130.289 144.178L133.108 140.845L137.539 127.882L140.358 126.4H169.358L170.97 126.771L172.581 128.993L175.4 138.623L177.414 142.697L181.039 144.919L184.664 145.66H202.386L206.414 144.548L207.622 142.697V139.734L205.206 132.326V131.586L203.997 129.734L202.789 124.919L199.97 117.882L198.358 111.956L197.15 109.734L189.9 87.5115V86.7707L189.095 86.03L182.247 64.9189V64.1781L181.442 63.4374L177.817 51.5855L175.4 46.03L171.775 43.4374L167.345 43.067L166.942 42.6966H141.97Z" fill="#263140" stroke="#263140"/>
<path opacity="0.121569" d="M224.74 41.9559H266.226L266.629 42.3263H270.657L271.06 42.6966L276.296 43.067L279.317 43.9929L278.31 44.5485L275.49 43.4374H271.463L269.449 42.6966H263.407L263.004 42.3263H232.796H231.99L223.935 42.6966L220.914 45.1041L219.706 48.4374V138.437L220.511 141.771L222.122 144.178L224.338 145.289C226.029 144.845 227.103 144.968 227.56 145.66H257.768L258.171 145.289L271.06 144.919L275.49 143.808H277.504L286.365 141.215L291.601 138.993L296.435 135.66L297.844 135.289L298.449 134.178L303.081 130.289L308.719 123.252L313.956 111.4V110.66L315.969 100.289L316.171 85.6596L316.372 89.5485L316.775 89.9189V96.2152L316.372 96.5855V100.289L315.969 100.66L316.372 102.141L315.164 106.586L315.567 107.326L313.956 111.771V112.511L312.344 116.586V117.326L308.317 125.104L305.9 128.623C305.175 128.351 304.907 128.536 305.094 129.178L298.851 135.289L297.442 135.66L296.838 136.771L291.199 139.363L289.99 140.474L283.143 143.067C282.74 142.45 282.338 142.573 281.935 143.437L272.671 145.289H271.865L264.213 146.03L263.407 145.66L258.976 146.4H228.768L225.546 145.66L224.74 146.03L220.914 143.623L219.303 139.919L218.9 131.4L219.303 131.03V46.9559L220.511 44.1781L224.74 41.9559Z" fill="#263140" stroke="#263140"/>
<path opacity="0.121569" d="M279.921 43.8078L282.136 44.7337C282.351 45.3016 282.15 45.4868 281.532 45.2893L279.719 44.9189L279.921 43.8078Z" fill="#263140" stroke="#263140"/>
<path opacity="0.121569" d="M282.74 44.5485L285.56 45.2892L286.365 46.03H287.171L294.018 48.9929L298.851 52.3263L300.261 52.6966L303.282 56.03L305.094 57.3263L309.122 62.8818L312.747 69.5485C312.076 69.9189 312.21 70.2892 313.15 70.6596L313.553 71.7707L313.15 72.1411L313.956 73.6226L315.567 78.8078L316.372 84.7337L315.567 85.104L315.164 79.9189L313.956 76.9559V76.2152C314.224 74.9806 313.956 74.2399 313.15 73.9929L313.553 73.6226L312.344 71.7707L308.719 63.2522L302.074 55.2892L295.831 51.2152V50.4744H294.622C294.971 49.7337 294.636 49.4868 293.615 49.7337L289.588 47.5115L282.539 45.104L282.74 44.5485Z" fill="#263140" stroke="#263140"/>
<path opacity="0.121569" d="M255.352 69.3633L267.032 69.7337L271.865 70.8448C276.377 72.4003 279.934 74.8078 282.539 78.067C284.311 80.2645 285.52 82.9806 286.164 86.2152C285.761 87.5732 285.895 88.4374 286.567 88.8078V96.9559L286.164 97.3263L285.761 101.4L284.553 104.734L283.747 105.474V106.586C282.19 109.474 280.109 111.882 277.504 113.808L272.268 116.771L267.435 118.252L255.754 118.993L255.352 118.623H250.518L249.511 118.252V70.2892L250.115 69.7337H254.949L255.352 69.3633ZM251.525 70.1041L251.122 70.4744C250.317 70.2275 250.048 70.4744 250.317 71.2152V71.9559V74.9189L249.914 75.2892V107.511L250.317 107.882L249.914 109.734V116.771L250.317 117.882L251.525 118.252L252.733 117.882L254.747 118.252H259.983L260.386 117.882L262.4 118.252L264.817 117.511L265.622 117.882L268.442 117.141H269.247L274.886 114.548C275.692 114.795 275.96 114.548 275.692 113.808L276.9 113.437C277.437 113.684 277.571 113.561 277.303 113.067L278.511 112.326L282.539 107.511L284.553 102.326V101.586L285.358 98.2522V97.5115L286.164 93.8078L285.761 89.3633V87.8818L284.956 86.4003L285.358 85.6596L284.956 84.9189L284.15 83.4374L284.553 83.067L281.733 78.2522L276.497 73.4374L270.456 71.2152H269.247C268.71 70.2275 268.308 70.1041 268.039 70.8448L266.025 70.4744H265.22L264.414 70.1041L263.206 70.4744H255.15L254.747 70.1041L252.733 70.4744L251.525 70.1041Z" fill="#263140" stroke="#263140"/>
<path opacity="0.121569" d="M154.254 71.2152L155.261 72.1411L156.872 76.9559L158.081 82.5115L159.289 84.7337L159.692 87.3263L163.72 99.1781L164.122 102.882L163.518 103.437C162.256 103.141 161.451 103.265 161.102 103.808H147.407L144.789 103.437L144.386 101.4L149.22 85.2893L150.025 85.1041L149.622 83.993L151.636 79.1781L152.442 75.1041L154.254 71.2152ZM154.456 73.067L153.247 74.9189L152.442 78.993L151.636 79.7337V81.5855L150.831 82.6967L150.428 85.6596L149.622 86.4004L150.025 87.1411L148.817 88.993L149.22 89.7337L148.817 90.8448C147.743 91.0917 147.608 91.4621 148.414 91.9559H148.011V92.6967L146.4 97.1411V97.8818L145.997 99.3633C144.923 99.6102 144.789 99.9806 145.595 100.474L145.192 101.215C144.655 102.45 144.923 102.944 145.997 102.697H146.803L147.608 103.067H161.303L162.511 102.697C162.78 103.19 163.048 103.19 163.317 102.697V100.474L161.303 95.6596L155.664 75.2893L154.456 73.067Z" fill="#263140" stroke="#263140"/>
<path opacity="0.121569" d="M87.7153 123.037L87.9166 124.333L87.5139 124.704V138.407L87.9166 139.333L87.1111 139.148V123.593L87.7153 123.037Z" fill="#263140" stroke="#263140"/>
<path opacity="0.945098" d="M228.768 42.3263L229.574 42.6966H266.226L266.629 43.067H271.06L271.463 43.4374L276.296 43.8077L286.365 46.4003L293.213 49.3633C297.536 51.5608 301.228 54.3386 304.289 57.6966L308.317 62.8818C310.492 66.3139 312.237 70.1411 313.553 74.3633L315.164 81.03L315.567 87.3263L315.969 87.6966V99.1781L315.567 99.5485L314.358 109.178L310.733 119.178C307.86 125.178 303.9 130.178 298.851 134.178C295.226 137.018 291.064 139.363 286.365 141.215L277.101 143.808L273.074 144.178L271.06 144.919H265.824L265.421 145.289L248.101 145.66L247.699 145.289H242.865L242.06 145.66C241.738 145.116 240.932 144.993 239.643 145.289L239.24 145.66H232.393H231.588L224.74 145.289L222.122 144.178L220.511 141.771L219.706 138.437V48.4374L220.511 45.8448L222.726 43.4374L224.338 42.6966H228.365L228.768 42.3263ZM228.567 43.067L228.164 43.4374H224.539L222.928 44.1781L220.914 46.7707C221.451 48.2522 221.317 49.2398 220.511 49.7337L220.914 51.2152C221.182 52.2028 221.048 52.9435 220.511 53.4374V139.363L222.525 143.808L226.553 144.919H230.178L230.581 144.548C231.923 144.302 232.863 144.425 233.4 144.919L243.872 144.548H244.678L246.289 144.919H249.914L250.317 144.548L251.525 144.919H256.358L256.761 144.548L257.969 144.919H258.775L259.581 144.548L261.192 144.919L261.997 144.548H267.636L270.858 143.808H274.081L283.747 141.586L288.178 140.104L297.442 134.548L298.65 133.808C303.483 129.857 307.377 124.919 310.331 118.993L313.956 108.252C313.687 106.277 313.956 104.919 314.761 104.178V99.7337L315.164 99.3633V90.4744L314.761 90.104L315.164 88.6226V87.8818L314.761 87.5115V82.6966L313.956 80.8448L313.553 76.7707L311.136 69.3633L307.108 62.3263L303.886 58.2522C302.275 55.7831 300.127 53.9312 297.442 52.6966C296.905 51.709 296.502 51.5855 296.233 52.3263H295.428L296.233 51.9559L288.983 47.8818L283.344 46.03L281.733 46.7707L282.136 46.03L272.067 43.8077H268.844L268.442 43.4374H257.969L257.567 43.067L255.553 43.4374C254.21 43.6843 253.405 43.5608 253.136 43.067C251.525 42.8201 250.585 42.9435 250.317 43.4374L249.511 43.067L248.706 43.4374C247.363 43.6843 246.557 43.5608 246.289 43.067H228.567Z" fill="#263140" stroke="#263140"/>
<path opacity="0.945098" d="M8.36807 41.5555L82.882 41.9259L84.2917 43.2222L85.5 48.037V61.7407C84.8824 62.0617 84.7482 62.8025 85.0972 63.9629L83.0833 67.6667L45.2222 113.222L43.6111 116L42.8056 115.815L44.4167 113.037C45.1417 113.309 45.4102 113.123 45.2222 112.481L52.875 103.037C53.6 103.309 53.8685 103.123 53.6806 102.481L56.0972 98.9629C56.8222 99.2346 57.0908 99.0494 56.9028 98.4074L61.3333 92.6667C62.0583 92.9383 62.3269 92.7531 62.1389 92.1111L68.1806 85.0741L68.9861 83.4074C69.7111 83.679 69.9796 83.4938 69.7917 82.8518L83.0833 66.9259L84.2917 64.7037L84.6945 62.8518V46.1852C84.1037 45.8642 83.9695 45.1234 84.2917 43.9629L82.882 42.6667L82.0764 42.2963H11.9931L9.97918 41.9259L9.5764 42.2963H5.9514L2.93057 44.3333L2.52779 45.4444V66.1852L3.93751 68.2222L6.35418 68.9629H44.6181L45.2222 69.5185C45.3833 70.6543 45.1148 71.395 44.4167 71.7407C34.5352 82.5802 25.137 93.7531 16.2222 105.259C15.4972 104.988 15.2287 105.173 15.4167 105.815L12.1945 110.074C11.4695 109.802 11.2009 109.988 11.3889 110.63L2.52779 121.37L2.12501 122.852V139.889C2.47409 141.321 3.21251 142.37 4.34029 143.037L7.56251 143.778H80.8681L84.0903 143.037L85.9028 141.741L86.7083 139.148V123.593L85.9028 119.889L83.6875 117.852L82.4792 117.481H44.6181L43.2083 116.926C43.5574 116.259 43.8931 116.198 44.2153 116.741L45.4236 117.111H82.882L86.3056 119.519L87.1111 122.111V139.889L85.9028 142.667L82.4792 144.148C80.8144 143.704 79.7403 143.827 79.257 144.519H17.2292L15.6181 144.148L15.2153 144.519H11.1875L10.7847 144.148L4.74307 143.778L2.52779 142.111L1.72224 140.63L1.31946 132.481L1.72224 132.111V122.111L2.52779 120.259L44.8195 69.8889L44.2153 69.3333H5.9514C4.42085 69.037 3.27964 68.358 2.52779 67.2963L1.72224 65.0741V46.1852C1.9639 44.5555 2.70233 43.3827 3.93751 42.6667L5.54862 41.9259C7.02548 42.2963 7.96529 42.1728 8.36807 41.5555Z" fill="#263140" stroke="#263140"/>
<path opacity="0.945098" d="M142.574 42.6966H166.74L171.171 43.4374L175.4 46.5855L178.219 52.8818L179.831 58.8077L183.456 68.067L184.261 71.7707L185.067 72.8818L192.719 96.5855L193.525 97.6966L201.178 121.4L201.983 122.511C203.192 127.573 204.803 132.265 206.817 136.586L207.622 142.141L206.213 144.548L202.185 145.66H184.463L180.838 144.919L177.414 142.511L175.4 138.437L172.581 128.808L170.768 126.771L169.157 126.4H140.157L137.539 127.697L136.733 128.808L133.108 140.66L130.088 144.178L125.254 145.66H107.532L103.101 144.919L101.692 143.623L101.289 140.66L102.094 136.586L110.553 111.586L111.358 111.771L108.539 118.808L105.317 129.919L103.303 134.734V136.215L102.497 137.326L102.094 142.882L103.101 144.178L105.921 144.919H126.06C128.664 144.474 130.611 143.425 131.9 141.771L136.331 128.437L137.74 126.771L139.351 126.03H170.365L172.581 127.697L173.789 129.919L177.011 141.03L179.226 143.437L183.657 144.919H203.393L206.414 143.808C207.058 142.845 207.193 141.178 206.817 138.808C205.608 136.709 204.803 134.24 204.4 131.4L203.594 130.289L202.386 125.104L197.553 112.882V111.4L196.747 110.66L195.942 106.586L192.719 96.9559L191.914 96.2151L190.303 90.2892L189.497 89.1781L188.289 83.9929L183.858 72.5114L183.456 69.9188C181.549 65.9929 180.072 61.6719 179.025 56.9559L177.011 52.5114V51.7707C176.394 48.5114 174.85 46.104 172.379 44.5485L168.351 43.4374H140.157C136.988 43.9806 134.639 45.2769 133.108 47.3263L131.497 51.03L130.692 54.7337L129.886 55.8448V57.3263L129.081 58.4374L128.275 62.1411L126.664 65.4744L126.261 68.067L124.247 72.5114L118.608 90.6596L116.192 96.2151L112.164 109.548L111.157 111.215L110.956 110.289L131.9 48.4374L134.921 44.9188L137.74 43.4374L142.171 43.067L142.574 42.6966Z" fill="#263140" stroke="#263140"/>
<path opacity="0.945098" d="M273.476 44.9189L275.289 45.104L273.879 45.6596L273.476 44.9189Z" fill="#263140" stroke="#263140"/>
<path opacity="0.945098" d="M276.296 46.4004L276.699 47.1411" stroke="#263140"/>
<path opacity="0.945098" d="M178.421 59.7337L178.824 60.4744" stroke="#263140"/>
<path opacity="0.945098" d="M304.088 61.9559L304.49 62.6966" stroke="#263140"/>
<path opacity="0.945098" d="M250.921 68.993H265.421C265.743 69.5362 266.549 69.6596 267.838 69.3633L272.671 70.4744L279.317 73.8078V74.5485C280.042 74.2769 280.31 74.4621 280.122 75.1041C282.485 76.7584 284.231 78.9806 285.358 81.7707L286.969 87.6967C286.54 90.1905 286.674 92.1658 287.372 93.6226L286.969 93.993L286.567 100.289L284.553 106.586L283.344 108.808L277.101 114.919L272.067 117.326L272.268 117.882L271.06 117.511L269.851 118.252L263.004 119.363H250.921L248.706 118.067V71.03L249.713 69.3633L250.921 68.993ZM255.553 69.3633L255.15 69.7337H250.317L249.511 70.4744V118.252L250.719 118.623H255.553L255.956 118.993L267.636 118.252C271.395 117.511 274.618 116.153 277.303 114.178L282.942 108.252L285.761 101.586L286.164 97.5115L286.567 97.1411V88.993L286.164 88.6226L285.761 84.5485C284.687 81.0917 283.076 78.2522 280.928 76.03L276.9 73.067L270.858 70.4744L267.233 69.7337H263.206L262.803 69.3633H255.553Z" fill="#263140" stroke="#263140"/>
<path opacity="0.945098" d="M153.851 70.4744L155.261 71.03L157.678 77.3262V78.8077L159.692 83.9929V85.4744L160.497 86.5855L161.303 90.6596L162.108 91.7707V93.2522L163.72 97.3262L164.928 102.882L163.115 104.178H145.393L143.983 103.252V99.5485L146.803 92.5114L152.845 71.7707L153.851 70.4744ZM154.456 71.2151L152.039 76.4003L150.831 81.5855L144.386 101.215L144.789 103.437L147.608 103.808H161.303C161.571 103.314 162.377 103.19 163.72 103.437L164.122 103.067L163.72 99.3633L157.275 79.7337L156.067 74.5485C155.261 74.0546 154.993 73.3139 155.261 72.3262L154.456 71.2151Z" fill="#263140" stroke="#263140"/>
<path opacity="0.945098" d="M312.546 78.6226L313.15 79.5485H312.747L312.546 78.6226Z" fill="#263140" stroke="#263140"/>
<path opacity="0.945098" d="M279.317 114.919L280.928 115.289C281.223 115.956 281.022 116.203 280.324 116.03L279.317 115.845V114.919Z" fill="#263140" stroke="#263140"/>
<path opacity="0.996078" d="M9.97917 41.9259L11.9931 42.2963H82.0764L84.2917 43.9629C83.9694 45.1234 84.1037 45.8642 84.6945 46.1852V62.8518L83.0833 66.9259L71.4028 80.6296L69.7917 83.4074C69.0667 83.1358 68.7981 83.321 68.9861 83.9629L62.9444 91L62.1389 92.6666C61.4139 92.395 61.1454 92.5802 61.3333 93.2222L56.9028 98.9629C56.1778 98.6913 55.9093 98.8765 56.0972 99.5185L53.6806 103.037C52.9556 102.765 52.687 102.951 52.875 103.593L45.2222 113.037C44.4972 112.765 44.2287 112.951 44.4167 113.593L42.8056 115.815L43.6111 116L43.2083 116.926L44.6181 117.481H82.4792C84.1171 117.827 85.2583 118.63 85.9028 119.889L86.7083 123.593V139.148L86.3056 141L85.2986 142.296L80.8681 143.778H7.5625C7.24028 143.235 6.43472 143.111 5.14583 143.407L2.93056 141.741L2.125 139.889V122.852L3.73611 119.518L10.5833 111.741L11.3889 110.074C12.1139 110.346 12.3824 110.16 12.1944 109.518L15.4167 105.259C16.1417 105.531 16.4102 105.346 16.2222 104.704L44.4167 71.7407C45.1148 71.395 45.3833 70.6543 45.2222 69.5185L44.6181 68.9629H6.35417L3.33333 67.6666L2.52778 66.1852V45.4444L4.34028 43.037L5.95139 42.2963H9.57639L9.97917 41.9259Z" fill="#263140" stroke="#263140"/>
<path opacity="0.996078" d="M228.365 43.067H246.088C246.41 43.6102 247.215 43.7337 248.504 43.4374L249.31 43.067L250.115 43.4374C250.518 42.8201 251.458 42.6966 252.935 43.067C253.284 43.6102 254.089 43.7337 255.352 43.4374L257.365 43.067L257.768 43.4374H268.24L268.643 43.8077H271.865L278.713 45.2892H280.727L285.963 46.7707L296.032 51.5855L303.886 58.067L307.108 62.1411L311.136 69.1781L313.553 76.5855L313.956 80.6596L314.761 82.5114V87.3263L315.164 87.6966V88.4374L314.761 89.9189L315.164 90.2892V99.1781L314.761 99.5485V103.993C313.983 104.882 313.714 106.24 313.956 108.067L310.331 118.808C307.458 124.808 303.497 129.808 298.449 133.808L297.24 134.548L287.977 140.104L283.546 141.586L273.879 143.808H270.657L267.435 144.548H261.796L260.99 144.919L259.379 144.548L258.574 144.919H257.768L256.56 144.548L256.157 144.919H251.324L250.115 144.548L249.713 144.919H246.088L244.477 144.548H243.671L233.199 144.919C232.796 144.302 231.856 144.178 230.379 144.548L229.977 144.919H226.352L222.525 143.808L220.511 139.178V53.2522C221.102 52.9312 221.236 52.1905 220.914 51.03L220.511 49.5485C221.263 49.104 221.397 48.1164 220.914 46.5855L222.727 44.1781L224.338 43.4374H227.963L228.365 43.067ZM273.678 44.9189L274.081 45.6596L275.289 45.2892L273.678 44.9189ZM251.122 68.9929L249.914 69.3633L248.706 71.2152V118.252L251.122 119.363H263.206C263.474 118.869 264.414 118.746 266.025 118.993L270.053 118.252L277.303 114.919L283.345 108.993L284.553 106.771L286.567 100.474L286.97 94.1781L287.372 93.8077C286.567 92.3263 286.433 90.351 286.97 87.8818L285.358 81.9559C284.284 78.9929 282.539 76.7707 280.122 75.2892C280.391 74.5485 280.122 74.3016 279.317 74.5485V73.8077L272.872 70.4744L268.039 69.3633C266.696 69.6102 265.891 69.4868 265.622 68.9929H251.122ZM279.317 114.919V116.03H280.525C281.062 116.277 281.196 116.03 280.928 115.289L279.317 114.919Z" fill="#263140" stroke="#263140"/>
<path opacity="0.996078" d="M140.157 43.4374H168.351L172.379 44.5485L174.997 46.9559L177.414 52.1411V52.8818L183.456 69.9189L183.858 72.5115L186.678 79.1781L189.497 89.1781L191.511 93.6226L191.914 96.2152L192.719 96.9559L195.942 106.586V108.067L196.747 109.178V110.66L197.553 111.4V112.882L202.386 125.104L203.594 130.289L204.4 131.4C204.803 134.24 205.608 136.709 206.817 138.808V142.882L206.414 143.808L203.393 144.919H183.657L179.226 143.437L177.414 141.771L173.386 128.808L171.574 126.771L170.365 126.03H139.351L136.733 127.697L132.706 140.289L130.088 143.437L126.06 144.919H105.921L103.907 144.548L102.497 143.623L102.094 142.882V138.808L107.733 122.511L108.539 118.808L111.358 111.771C110.687 111.4 110.821 111.03 111.761 110.66L116.192 96.2152L118.608 90.6596L124.247 72.5115L126.261 68.067L129.081 58.4374L129.886 57.3263V55.8448L131.497 52.5115V51.03C132.061 48.4621 133.337 46.5485 135.324 45.2892L140.157 43.4374ZM154.053 70.4744L152.844 71.9559L146.803 92.6966L143.983 99.7337V103.437L145.594 104.178H163.317L164.928 103.067L163.719 97.5115L162.108 93.4374V91.9559L161.303 90.8448L160.497 86.7707L159.692 85.6596V84.1781L157.678 78.9929V77.5115L155.261 71.2152L154.053 70.4744Z" fill="#263140" stroke="#263140"/>
<path opacity="0.996078" d="M15.618 144.148L17.0278 144.333L15.618 144.519V144.148Z" fill="#263140" stroke="#263140"/>
<path opacity="0.996078" d="M239.643 145.289L241.858 145.474L239.643 145.66V145.289Z" fill="#263140" stroke="#263140"/>
<path opacity="0.996078" d="M242.865 145.289L247.9 145.474L242.865 145.66V145.289Z" fill="#263140" stroke="#263140"/>
<path opacity="0.121569" d="M344.849 9.53492L343.073 17.7972L342.818 17.9879L341.655 21.8285L339.063 27.4297L338.617 27.4651L338.531 27.9264L333.726 34.7824C333.376 34.5414 333.213 34.6301 333.237 35.0485L329.445 38.2745L329.127 38.2146L329.04 38.6758C328.69 38.4348 328.527 38.5235 328.551 38.9419L326.849 39.8154L326.784 40.1613C326.304 39.8322 326.071 39.9076 326.083 40.3874L324.253 41.3563L319.11 43.0144L316.903 43.0762L316.18 43.4177L315.756 43.3378L314.184 43.5194L313.76 43.4396L312.868 43.5104L312.444 43.4305L310.365 43.397C311.691 44.1245 312.72 45.0745 313.451 46.2469L314.743 46.9678C314.509 47.3536 314.586 47.5273 314.974 47.4889L317.595 49.893L321.775 55.098L322.322 56.2756L324.136 58.8858L324.345 59.5223C324.677 59.4732 324.761 59.6085 324.598 59.9281L325.039 61.0857C325.453 60.9885 325.572 61.1304 325.398 61.5115L326.617 64.3678L326.508 64.9444C326.967 64.8398 327.072 65.0586 326.824 65.6008L327.58 67.4148L327.69 71.4951C327.293 71.6591 327.121 72.1839 327.174 73.0695L326.299 74.218L325.597 74.4442L325.171 74.9608L322.409 75.6346L321.816 75.2842L321.348 75.4349C319.99 74.797 319.032 73.8603 318.474 72.625L318.245 71.5073C317.832 71.6045 317.712 71.4626 317.886 71.0815L315.827 66.2759C315.479 66.3376 315.394 66.2024 315.574 65.87L313.888 63.1645L313.953 62.8185L311.99 60.419L311.611 59.5119L309.308 57.1678C309.565 56.7385 309.417 56.5514 308.865 56.6067L307.641 54.9434L307.217 54.8635L303.54 51.0667L297.999 46.6798L297.574 46.5999L295.796 45.5486L295.459 45.0075L294.611 44.8477L293.469 43.9162L291.435 43.0556L290.505 42.164L290.037 42.3148L288.895 41.3833L288.471 41.3034C286.388 40.0832 284.015 39.0792 281.353 38.2912L280.592 37.6702L280.124 37.8209L278.346 36.7696L277.924 36.0932L278.016 34.439L278.337 33.9024C278.687 34.1434 278.85 34.0547 278.826 33.6363L280.357 33.0888L282.776 33.0669L284.473 33.3864L284.728 33.1957L290.454 34.2741L290.622 34.5446L295.244 35.6539L296.642 36.3947L297.109 36.244L299.524 37.4151L299.948 37.495L301.389 38.0052C302.032 37.8557 302.189 37.6066 301.859 37.258L303.704 32.71L303.614 33.7678L302.37 36.8766L302.11 38.2603L301.726 38.5463L300.666 38.3466L296.81 36.6653L293.037 35.7158L292.868 35.4452L284.641 33.6569L284.386 33.8476L282.477 33.4882L280.482 33.5899C279.624 33.6354 278.944 33.945 278.44 34.5188L278.098 35.1708L278.645 36.3483L280.211 37.3597L282.288 37.9897L290.972 42.0133L296.307 45.1672L301.343 48.7425C304.584 51.2791 307.5 54.0572 310.094 57.0769C312.301 59.6578 314.228 62.4484 315.873 65.4488L318.604 71.9331L319.869 73.9623L321.435 74.9737L322.708 75.2133L325.364 74.5195L325.45 74.0583C325.8 74.2993 325.963 74.2106 325.94 73.7922C326.811 73.2081 327.269 71.9412 327.314 69.9916C327.362 68.1061 327.086 66.4621 326.486 65.0597L323.228 57.879L322.803 57.7991C323.037 57.4133 322.96 57.2395 322.572 57.2779C319.126 51.7893 314.718 47.0189 309.348 42.9667L309.519 42.6408L310.28 43.2618L310.791 42.8804L313.804 43.2089L314.527 42.8675L317.158 42.8856L320.344 42.2916L326.148 40.0415C326.071 39.5971 326.206 39.4633 326.553 39.6402L327.126 39.5094C327.049 39.065 327.184 38.9312 327.531 39.1081L328.872 38.4053L328.958 37.944L329.383 38.0239L329.469 37.5627L329.894 37.6426L329.98 37.1813C330.33 37.4224 330.493 37.3337 330.47 36.9153L331.557 35.8067C331.907 36.0477 332.07 35.959 332.046 35.5406L334.177 33.5539L336.78 30.2235L339.003 26.5826L340.46 23.5137L340.633 22.5912L341.188 21.9793L341.275 21.518C341.323 20.7948 341.551 20.3602 341.959 20.2142L342.35 18.1386L343.122 16.3736L344.463 10.4174C344.153 10.1203 344.184 9.56884 344.555 8.76318L344.052 7.355L343.671 7.0445L341.338 6.60516L341.083 6.79584L337.859 6.42736L334.335 6.48018L327.327 7.54823C322.494 8.80309 318.296 11.0771 314.734 14.3701C312.566 16.3976 310.645 18.8218 308.972 21.6429L306.961 25.3238L306.103 27.5501L305.548 28.1621L305.331 29.3152L304.69 30.3884L304.065 32.5393C303.652 32.6365 303.532 32.4946 303.706 32.1135L305.853 26.5478L308.119 22.6762L308.078 22.3103L308.418 22.2549L308.249 21.9844L308.847 21.1418L311.581 17.1195L312.347 16.5475L312.755 15.5496C313.141 15.8294 313.319 15.6638 313.287 15.0529L313.989 14.8268L314.63 13.7536C314.98 13.9946 315.143 13.906 315.119 13.4876L318.569 10.9134L318.887 10.9733C318.809 10.5289 318.944 10.3952 319.292 10.572L323.206 8.44363L329.029 6.67471L329.665 6.79453L330.176 6.41318L336.63 5.95711L343.758 6.58326L344.625 7.22423L344.849 9.53492Z" fill="#263140" stroke="#263140"/>
<path opacity="0.945098" d="M344.463 10.4175L342.606 17.948L339.003 26.5827L334.177 33.554C332.232 35.6395 330.102 37.4273 327.787 38.9175C325.034 40.7075 321.945 41.9563 318.517 42.6641L313.167 43.0892L309.413 42.6209L309.601 43.3726C315.727 47.9175 320.585 53.4094 324.174 59.8483C325.382 61.9862 326.334 64.3147 327.031 66.8339L327.314 69.9916L326.793 72.7591L324.79 74.6504L322.708 75.2134L321.435 74.9738C319.989 74.3352 319.046 73.3217 318.604 71.9332C317.247 67.7931 315.353 64.0534 312.922 60.7141C309.209 55.5572 304.644 51.0359 299.227 47.1501L290.972 42.0134L284.322 38.8504L283.261 38.6507L282.288 37.9898L279.406 36.9694L278.223 35.672L278.141 34.9402L279.335 33.8516L281.373 33.5192L284.386 33.8477L284.641 33.657L290.367 34.7354L290.535 35.006L296.81 36.6654L301.683 38.777L302.109 38.2604L303.359 33.9585L304 32.8853L305.076 29.5059C306.408 26.2386 307.921 23.2599 309.613 20.5698C312.272 16.3264 315.554 13.084 319.46 10.8427C323.044 8.68379 327.11 7.30052 331.66 6.69285L337.859 6.42745L339.343 6.70703L341.338 6.60525L343.671 7.04459L344.305 7.76092L344.463 10.4175ZM344.104 9.99173L344.071 7.83629L342.886 7.13542L336.817 6.70896L331.723 6.94343L329.004 7.38663C325.351 8.1313 322.02 9.49396 319.012 11.4746C318.758 11.2676 318.658 11.408 318.713 11.8959L315.946 13.7627C316.029 14.0969 315.874 14.1471 315.478 13.9135C313.119 16.3347 310.9 19.1803 308.82 22.4502L305.994 28.1267L305.777 29.2798L303.848 33.6925L303.544 35.3068L302.946 36.1494L302.642 37.7637L301.745 39.0276L297.678 37.3064L295.769 36.9469L294.16 36.1661L291.403 35.6469L291.234 35.3764L288.477 34.8571L288.309 34.5866L281.648 33.8097L278.93 34.2529L278.457 35.5967L279.556 36.7588L280.616 36.9585L287.522 39.9307L295.695 44.3357L296.032 44.8768L298.996 46.629L304.919 51.3264L307.116 53.6506C307.569 53.5767 307.681 53.7571 307.453 54.1917L309.525 56.0148L313.24 60.774C315.717 63.9468 317.583 67.6414 318.838 71.8578C319.313 73.2209 320.3 74.2027 321.797 74.8031L323.113 74.8121L325.45 74.0584L326.646 72.3732L327.037 70.2976L326.503 66.1375C325.219 62.0748 323.338 58.4571 320.862 55.2843C320.55 55.3848 320.508 55.2177 320.736 54.7831L317.272 51.0262L316.848 50.9463L316.636 50.9064L317.103 50.7557L311.735 45.4463L309.027 43.5034C308.773 43.2964 308.775 42.8987 309.032 42.3104L313.572 42.6879L318.922 42.2627L319.433 41.8814L319.646 41.9213C322.252 41.2978 324.618 40.3903 326.746 39.199L326.789 38.9684L326.876 38.5072L327.001 39.0083L329.469 37.5628L331.301 35.9974C331.247 35.5096 331.417 35.3824 331.812 35.6161L332.367 35.0041C332.312 34.5162 332.483 34.3891 332.878 34.6227L338.172 27.5006L338.09 26.7689L338.177 26.3076L338.302 26.8088L340.698 22.2454L341.861 18.4048L342.546 17.1009L344.104 9.99173Z" fill="#263140" stroke="#263140"/>
<path opacity="0.945098" d="M335.019 30.2501L334.571 30.8821L334.701 30.1902L335.019 30.2501Z" fill="#263140" stroke="#263140"/>
<path opacity="0.945098" d="M328.262 36.9773L327.882 36.6668" stroke="#263140"/>
<path opacity="0.945098" d="M327.621 38.0503L327.153 38.2011C327.135 37.752 327.291 37.7017 327.621 38.0503Z" fill="#263140" stroke="#263140"/>
<path opacity="0.945098" d="M313.031 41.8002L312.483 41.8615L312.507 41.6281L313.031 41.8002Z" fill="#263140" stroke="#263140"/>
<path opacity="0.945098" d="M311.505 41.8785L310.312 41.8732L309.788 41.7011L310.36 41.4064L311.505 41.8785Z" fill="#263140" stroke="#263140"/>
<path opacity="0.996078" d="M344.126 9.87635L342.568 16.9856L339.949 23.8951L337.552 28.4585L332.878 34.6227C332.528 34.3817 332.365 34.4703 332.389 34.8887L331.812 35.616C331.463 35.375 331.299 35.4637 331.323 35.882L329.47 37.5627L325.15 40.0924L319.752 41.9412L319.455 41.766L319.029 42.2826L313.679 42.7078L309.032 42.3103C308.781 42.8679 308.815 43.2723 309.133 43.5233L311.842 45.4662L316.323 49.6534L320.737 54.783C320.503 55.1688 320.58 55.3426 320.968 55.3042C323.34 58.4891 325.192 62.0618 326.525 66.0221L327.059 70.1823L326.668 72.2578L325.451 74.0583L323.219 74.832L321.903 74.8229C320.318 74.222 319.304 73.1951 318.86 71.7425C317.593 67.6671 315.755 64.0176 313.346 60.7939L309.631 56.0347L307.453 54.1916C307.687 53.8058 307.61 53.6321 307.222 53.6705L305.025 51.3463L299.102 46.6489L296.139 44.8967L295.801 44.3556L287.628 39.9506L280.722 36.9784L279.662 36.7787L278.479 35.4813L278.93 34.2528L281.754 33.8296L288.415 34.6065L288.584 34.877L291.34 35.3963L291.509 35.6668L294.266 36.186L295.876 36.9668L297.784 37.3262L301.852 39.0475L302.664 37.6483L302.968 36.034L303.566 35.1914L303.87 33.5771L305.799 29.1644L306.016 28.0114L308.842 22.3348C310.856 19.1004 313.069 16.2933 315.479 13.9134C315.828 14.1544 315.991 14.0657 315.968 13.6474L318.735 11.7805C318.685 11.421 318.813 11.3256 319.118 11.4945C322.089 9.55465 325.42 8.19199 329.111 7.40653L331.829 6.96333L336.924 6.72886L342.992 7.15532L344.071 7.83622L344.126 9.87635ZM335.019 30.2499L334.595 30.1701L334.72 30.6712L335.019 30.2499ZM327.599 38.1657C327.233 37.7783 327.077 37.8285 327.132 38.3164L327.599 38.1657ZM312.556 42.2575L311.963 41.9071L311.919 42.1377L312.556 42.2575ZM311.028 42.2085L309.63 41.4677L309.755 41.9689L311.028 42.2085Z" fill="#263140" stroke="#263140"/>
<path opacity="0.121569" d="M342.451 43L361.382 43.3704L364 45.4074L364.806 47.2593V48V103.926L365.208 105.037V105.778L366.014 112.074C367.034 114.864 368.713 117.025 371.049 118.556L373.465 119.667L377.09 120.407H384.34C387.885 119.716 390.637 118.296 392.597 116.148L394.611 112.815L395.819 107.63V106.889V83.9259L396.222 83.5556L395.819 82.8148L396.222 82.0741C395.551 81.7037 395.417 80.8395 395.819 79.4815L396.222 79.1111V76.1481L395.819 75.7778V49.8519L396.222 49.1111V48.3704L396.625 47.2593V46.5185L399.243 43.7407L402.868 43H418.979L422.201 43.7407L424.819 45.7778L426.028 49.1111V105.407L425.625 105.778L425.222 115.407L422.403 125.037L419.181 130.963L414.146 136.704C413.555 136.531 413.354 136.716 413.542 137.259L407.701 141.889L403.875 143.37C404.17 144.037 403.969 144.284 403.271 144.111L396.424 146.704L388.771 147.815H387.965L386.757 148.185H376.285L372.257 147.444L371.049 147.815L370.646 147.444L366.215 147.074L360.979 145.593L353.931 142.63C354.226 141.963 354.025 141.716 353.326 141.889L347.889 138L347.285 137.074C346.694 137.272 346.493 137.086 346.681 136.519L343.458 132.259H342.653V131.148C341.928 131.42 341.659 131.235 341.847 130.593L338.625 125.037L337.417 121.333L336.208 116.889L335.806 111.704L335 108.37L335.403 107.259L335 106.889V51.7037L335.403 50.5926L335 49.4815L336.611 45.7778L338.424 44.1111L342.451 43ZM341.444 43.7407L339.431 44.4815C337.551 45.4691 336.343 47.1975 335.806 49.6667V109.667L336.208 110.037V113.37L339.028 124.111C340.907 128.556 343.458 132.506 346.681 135.963C349.634 138.926 353.259 141.395 357.556 143.37L363.194 145.593L374.069 147.444H387.361L396.625 145.963C401.727 144.481 406.292 142.259 410.319 139.296C414.884 136.086 418.375 131.889 420.792 126.704C422.403 123 423.611 119.173 424.417 115.222L424.819 105.963L425.222 105.593V49.2963L424.014 46.3333L422.403 44.4815L419.583 43.7407H402.264L399.444 44.4815L397.833 45.963L396.625 49.2963V107.815L395.014 114.111L393 117.074C391.389 119.049 388.972 120.284 385.75 120.778H376.083C373.398 120.531 371.384 119.79 370.042 118.556L366.417 114.481L364.403 106.704V48.1852L363.194 45.5926L360.778 43.7407H341.444Z" fill="#263140" stroke="#263140"/>
<path opacity="0.945098" d="M341.646 43.7407H358.562C358.965 44.358 359.905 44.4815 361.382 44.1111L363.194 45.4074L364.403 48.7407V108L365.208 109.481V111.333C365.906 111.679 366.175 112.42 366.014 113.556C366.766 115.704 368.041 117.37 369.84 118.556L375.076 120.778H385.549C388.771 120.16 391.255 118.864 393 116.889L395.014 113.926L396.625 107.63V49.1111L397.833 45.7778L399.243 44.4815L402.062 43.7407H419.382L422.201 44.4815L424.014 46.1481L425.222 49.1111V105.407L424.819 105.778L424.417 115.037C423.611 119.235 422.403 123.062 420.792 126.519C418.268 131.728 414.71 135.988 410.118 139.296L403.271 143.37L396.424 145.963L387.16 147.444H373.868L364.604 145.963L357.354 143.37C353.165 141.42 349.607 138.889 346.681 135.778C343.485 132.42 340.934 128.469 339.028 123.926L336.208 113.185V109.852L335.806 109.481V49.4815C336.289 47.2099 337.43 45.5432 339.229 44.4815L341.646 43.7407ZM341.042 44.4815L339.431 45.2222L337.014 47.8148L336.208 51.5185V108.185L337.014 111.519V114.481C337.819 115.222 338.088 116.58 337.819 118.556L340.639 126.333C342.25 129.79 344.398 132.877 347.083 135.593C350.306 139.049 354.602 141.765 359.972 143.741L365.611 145.593L369.639 146.333L378.5 146.704L378.903 147.074L391.389 146.333L398.236 144.852L405.486 141.889L409.917 138.926C414.213 135.469 417.704 131.272 420.389 126.333L422.806 120.037L423.611 113.37L424.417 110.778V48.5555L423.611 46.7037L420.792 44.4815H401.056L399.444 45.2222L397.431 48.1852V106.333L395.819 113.741L393 117.815C392.194 117.568 391.926 117.815 392.194 118.556L388.167 120.778L384.944 121.519H376.486L369.639 118.926C367.759 117.691 366.417 116.086 365.611 114.111L364.403 111.148L364 107.074L363.597 106.704V48.5555L362.389 45.2222L360.778 44.4815H341.042Z" fill="#263140" stroke="#263140"/>
<path opacity="0.945098" d="M365.41 115.222L365.812 115.963C365.061 116.136 364.926 115.889 365.41 115.222Z" fill="#263140" stroke="#263140"/>
<path opacity="0.996078" d="M340.84 44.4815H360.576L362.389 45.2222L363.597 48.3704V106.519L364 106.889L364.403 110.963L365.611 113.926C366.363 116.074 367.638 117.741 369.437 118.926L376.285 121.519H384.743L387.965 120.778L392.194 118.556C391.899 117.889 392.1 117.642 392.799 117.815L395.819 113.556L397.43 106.148V48L399.243 45.2222L400.854 44.4815H420.59L423.611 46.5185L424.417 48.3704V110.593L423.611 113.185L422.805 119.852L420.389 126.148C417.784 131.284 414.226 135.543 409.715 138.926L405.285 141.889L398.035 144.852L391.187 146.333L378.701 147.074L378.299 146.704L369.437 146.333L365.41 145.593L359.771 143.741C354.561 141.864 350.332 139.086 347.083 135.407C344.452 132.765 342.304 129.679 340.639 126.148L337.819 118.37C338.061 116.543 337.793 115.185 337.014 114.296V111.333L336.208 108V51.3333L337.014 47.6296L339.229 45.2222L340.84 44.4815ZM365.611 115.222C365.074 115.963 365.208 116.21 366.014 115.963L365.611 115.222Z" fill="#263140" stroke="#263140"/>
</svg>
